<?xml version="1.0" encoding="utf-8"?>
<!-- Generator: Adobe Illustrator 26.0.3, SVG Export Plug-In . SVG Version: 6.00 Build 0)  -->
<svg version="1.1" id="Layer_1" xmlns="http://www.w3.org/2000/svg" xmlns:xlink="http://www.w3.org/1999/xlink" x="0px" y="0px"
	 viewBox="0 0 266.04 70" style="enable-background:new 0 0 266.04 70;" xml:space="preserve">
<style type="text/css">
	.st0{fill-rule:evenodd;clip-rule:evenodd;fill:#101B88;}
	.st1{fill-rule:evenodd;clip-rule:evenodd;fill:#FFFFFF;}
	.st2{fill:#FFFFFF;}
</style>
<g>
	<rect y="-0.15" class="st0" width="266.04" height="70.3"/>
	<path class="st1" d="M62.71,34l2.28-2.35l1.25-1.39l0.16,0.16v1.47c0.85,0.8,1.78,1.43,2.8,1.89c1.41,0.64,2.82,0.96,4.25,0.96
		c3.03,0,4.55-1,4.55-2.99c0-1.93-2.26-2.58-3.83-2.93c-1.14-0.26-2.33-0.57-3.56-0.95c-3.71-1.14-7.4-2.47-7.4-6.85
		c0-2.37,0.92-4.21,2.76-5.49c1.82-1.27,4.13-1.9,6.91-1.9c2.25,0,4.27,0.39,6.04,1.19c1.78,0.8,3.2,1.81,4.27,3.01l-2.81,2.94
		l-0.01-0.01l-0.71,0.79l-0.16-0.16V19.9h0c-1.83-1.6-4.03-2.4-6.59-2.4c-2.97,0-4.45,0.99-4.45,2.98c0,1.91,2.28,2.58,3.84,2.9
		c4.43,0.91,10.96,2,10.96,7.66c0,1.41-0.29,2.64-0.86,3.68c-0.57,1.05-1.36,1.85-2.38,2.4c-1.85,1-4.04,1.5-6.57,1.5
		C68.93,38.62,65.35,37.09,62.71,34 M143.59,21.73l0,0.22l1.09,0.97v15.07h4.9v-8.16c0-1.22,0.49-2.19,1.47-2.92
		c0.79-0.56,1.82-0.84,3.06-0.84c0.65,0,1.1,0.02,1.37,0.07v-4.82c-3.09,0.06-5.06,1.43-5.9,4.11v-3.72
		C147.56,21.73,145.58,21.72,143.59,21.73z M126.19,30.03c0,2.72,0.87,4.82,2.6,6.28c1.72,1.45,3.97,2.17,6.73,2.17
		c2.96,0,5.31-1.06,7.06-3.19l-2.33-2.43c-1.14,1.65-2.69,2.46-4.62,2.45c-1.34,0-2.41-0.41-3.18-1.23
		c-0.77-0.82-1.19-2.03-1.23-3.63h12.21c0.02-0.2,0.04-0.49,0.04-0.84c-0.01-2.79-0.8-4.89-2.38-6.28
		c-1.57-1.38-3.54-2.07-5.94-2.07c-2.62,0-4.77,0.75-6.43,2.26C127.03,25.03,126.19,27.2,126.19,30.03z M138.81,27.92h-7.53
		c0.31-2.45,1.58-3.68,3.82-3.68c1.07,0,1.93,0.27,2.57,0.81C138.29,25.57,138.68,26.53,138.81,27.92z M100.9,35.25
		c-1.44,0-2.57-0.45-3.41-1.35c-0.85-0.89-1.28-2.23-1.28-4.01c0-1.79,0.39-3.14,1.15-4.07c0.77-0.92,1.88-1.37,3.33-1.37
		c1.67,0.01,2.94,0.79,3.82,2.36l0,0l1.59-1.66l0.97-1.01c-1.5-1.92-3.72-2.88-6.66-2.88c-2.77,0-4.99,0.74-6.66,2.23
		c-1.69,1.48-2.54,3.62-2.54,6.4c0,2.76,0.85,4.89,2.54,6.37c1.69,1.48,3.89,2.23,6.61,2.23c2.95,0,5.28-1.02,6.98-3.06l-2.3-2.39
		C104.04,34.51,102.66,35.25,100.9,35.25z M107.49,16.71v0.22l1.09,0.97v20.09h4.9v-6.63c0.02-1.87,0.12-3.12,0.29-3.75
		c0.57-1.94,1.73-2.91,3.48-2.91c1,0,1.74,0.34,2.19,1.02c0.46,0.68,0.68,1.71,0.68,3.11v9.16h4.9v-10.2c0-2.1-0.51-3.69-1.52-4.79
		c-1.02-1.09-2.5-1.64-4.43-1.64c-2.86,0.01-4.72,1.1-5.58,3.27v-7.92L107.49,16.71z M84.96,22.25l-1.09,0v0.22l1.09,0.97v14.54h4.9
		V22.25h-3.79L84.96,22.25L84.96,22.25z M84.86,20.84v-4.13h5.12v4.13H84.86z M238.83,21.73l0,0.23l1.1,0.98v15.05h4.9v-8.16
		c0-1.22,0.49-2.19,1.47-2.92c0.79-0.56,1.82-0.84,3.06-0.84c0.65,0,1.1,0.02,1.37,0.07v-4.82c-3.09,0.06-5.06,1.43-5.9,4.11v-3.72
		L238.83,21.73z M161.85,16.7v0.24l1.1,0.98v20.07h4.28V22.31l5.58,15.69h3.37l5.53-15.62v15.62h4.31V16.71h-6.98l-4.59,14.11
		l-4.66-14.11L161.85,16.7z M195.37,28.05c-0.89,0.15-1.9,0.38-3.03,0.7c-1.08,0.32-1.91,0.68-2.5,1.09
		c-1.39,0.96-2.09,2.27-2.09,3.94c0,1.15,0.32,2.09,0.96,2.83c0.61,0.71,1.31,1.2,2.1,1.47c0.79,0.27,1.73,0.41,2.8,0.41
		c1.47,0,2.71-0.27,3.71-0.82c0.99-0.54,1.72-1.3,2.18-2.27c0.46,1.92,1.75,2.87,3.89,2.87c1.21,0.01,2.11-0.18,2.71-0.58v-2.17
		c-0.34,0.09-0.68,0.14-1.03,0.14c-0.77,0-1.15-0.47-1.15-1.41v-5.99c0-2.58-0.57-4.39-1.71-5.43c-1.14-1.03-2.99-1.55-5.55-1.55
		c-3.1,0-5.41,0.91-6.94,2.73l-0.07,0.09l2.68,2.8l0-0.01c0.87-1.75,2.19-2.64,3.97-2.64c0.93,0,1.63,0.21,2.07,0.62
		c0.44,0.41,0.67,1.07,0.67,1.99v0.7C197.19,27.78,195.97,27.94,195.37,28.05z M199.04,29.79v1.37c0,1.36-0.4,2.44-1.2,3.24
		c-0.81,0.81-1.77,1.22-2.87,1.22c-0.78,0-1.38-0.2-1.82-0.6c-0.44-0.4-0.66-0.98-0.66-1.75c0-1.14,0.68-1.96,2.06-2.46
		c0.6-0.23,1.27-0.43,2-0.6C197.17,30.07,198,29.93,199.04,29.79z M236.04,36.24c-1.69,1.5-3.82,2.24-6.4,2.24
		c-2.59,0-4.73-0.75-6.42-2.24c-1.69-1.48-2.54-3.6-2.54-6.35c0-2.77,0.84-4.9,2.52-6.39c1.67-1.49,3.81-2.24,6.43-2.24
		c2.62,0,4.76,0.75,6.42,2.24c1.66,1.5,2.5,3.63,2.5,6.39C238.56,32.64,237.71,34.76,236.04,36.24z M226.83,33.97
		c0.72,0.93,1.65,1.39,2.8,1.39c1.13,0,2.07-0.46,2.81-1.39c0.72-0.91,1.08-2.27,1.08-4.07c0-1.79-0.36-3.16-1.08-4.11
		c-0.73-0.94-1.67-1.4-2.81-1.4c-1.15,0-2.09,0.47-2.8,1.4c-0.73,0.94-1.1,2.31-1.1,4.11C225.73,31.71,226.1,33.06,226.83,33.97z
		 M204.83,22.94l6.34,16.12l0.03,0.09l-1.58,3.98l3.76-0.02l0.8-2.18l7.6-19.21h-3.93l-2.55,6.62l-1.79,4.87l-0.04-0.12l-4.03-11.37
		h-5.71v0.23L204.83,22.94z"/>
	<path class="st2" d="M221.24,44.42c0,0.03,0,0.08-0.01,0.15c-0.01,0.07-0.02,0.15-0.03,0.24c-0.02,0.09-0.04,0.18-0.06,0.27
		c-0.02,0.09-0.05,0.18-0.09,0.26c-0.03,0.08-0.07,0.14-0.12,0.2c-0.05,0.05-0.1,0.07-0.16,0.07h-2.91l-0.48,2.39h2.74
		c0.06,0,0.11,0.03,0.14,0.08c0.03,0.05,0.04,0.12,0.04,0.2c0,0.03,0,0.08-0.01,0.15c-0.01,0.07-0.02,0.15-0.04,0.23
		c-0.02,0.08-0.04,0.17-0.06,0.27c-0.03,0.09-0.06,0.18-0.09,0.25c-0.03,0.07-0.07,0.14-0.12,0.19c-0.04,0.05-0.1,0.07-0.16,0.07
		h-2.72l-0.66,3.32c-0.01,0.05-0.03,0.09-0.07,0.13c-0.04,0.04-0.09,0.07-0.17,0.09c-0.08,0.02-0.17,0.04-0.29,0.05
		c-0.12,0.01-0.26,0.02-0.44,0.02c-0.18,0-0.33-0.01-0.44-0.02c-0.11-0.01-0.2-0.03-0.27-0.05c-0.07-0.02-0.11-0.05-0.13-0.09
		c-0.02-0.04-0.03-0.08-0.01-0.13l1.61-8.07c0.04-0.2,0.12-0.35,0.25-0.44c0.12-0.09,0.26-0.13,0.42-0.13h4.17
		c0.08,0,0.13,0.03,0.15,0.07C221.23,44.26,221.24,44.33,221.24,44.42 M209.4,48.5c-0.16-0.25-0.34-0.44-0.53-0.57
		c-0.2-0.12-0.42-0.19-0.68-0.19c-0.19,0-0.37,0.05-0.53,0.14c-0.16,0.09-0.3,0.21-0.43,0.37c-0.13,0.15-0.24,0.33-0.33,0.53
		c-0.09,0.2-0.17,0.41-0.23,0.63c-0.06,0.22-0.11,0.44-0.14,0.66c-0.03,0.22-0.05,0.43-0.05,0.63c0,0.16,0.01,0.3,0.04,0.42
		c0.03,0.13,0.07,0.24,0.13,0.33c0.06,0.09,0.13,0.16,0.22,0.21c0.09,0.05,0.2,0.07,0.33,0.07c0.2,0,0.41-0.06,0.62-0.18
		c0.21-0.12,0.41-0.29,0.59-0.49c0.18-0.21,0.34-0.45,0.49-0.73c0.14-0.28,0.24-0.58,0.3-0.89L209.4,48.5z M210.2,53.04
		c-0.08,0.42-0.21,0.78-0.38,1.09c-0.17,0.31-0.4,0.57-0.69,0.78c-0.28,0.21-0.63,0.37-1.03,0.47c-0.41,0.11-0.88,0.16-1.42,0.16
		c-0.39,0-0.74-0.03-1.05-0.09c-0.31-0.06-0.57-0.14-0.78-0.24c-0.07-0.04-0.12-0.08-0.15-0.12c-0.03-0.05-0.04-0.11-0.04-0.19
		c0-0.03,0-0.07,0.01-0.14c0-0.07,0.01-0.14,0.03-0.21c0.02-0.08,0.04-0.16,0.06-0.24c0.02-0.08,0.05-0.16,0.09-0.23
		c0.04-0.07,0.07-0.12,0.12-0.16c0.04-0.04,0.09-0.07,0.15-0.07c0.06,0,0.12,0.02,0.2,0.06c0.08,0.04,0.19,0.08,0.32,0.13
		c0.13,0.04,0.3,0.09,0.5,0.12c0.2,0.04,0.44,0.06,0.73,0.06c0.23,0,0.44-0.02,0.63-0.06c0.19-0.03,0.35-0.1,0.48-0.18
		c0.14-0.08,0.25-0.19,0.33-0.32c0.08-0.13,0.14-0.29,0.18-0.48c0.06-0.3,0.12-0.55,0.18-0.75c0.06-0.2,0.12-0.37,0.17-0.5
		c-0.08,0.15-0.2,0.3-0.35,0.45c-0.15,0.15-0.33,0.28-0.53,0.4c-0.2,0.12-0.41,0.21-0.64,0.29c-0.23,0.07-0.46,0.11-0.68,0.11
		c-0.35,0-0.65-0.06-0.89-0.18c-0.24-0.12-0.44-0.28-0.59-0.5c-0.15-0.21-0.26-0.46-0.33-0.74c-0.07-0.28-0.1-0.59-0.1-0.92
		c0-0.3,0.03-0.62,0.08-0.96c0.06-0.34,0.14-0.68,0.26-1.02c0.12-0.34,0.27-0.66,0.44-0.98c0.18-0.31,0.39-0.59,0.65-0.83
		c0.25-0.24,0.54-0.43,0.86-0.57c0.32-0.14,0.69-0.21,1.09-0.21c0.38,0,0.72,0.08,1.01,0.24c0.29,0.16,0.55,0.39,0.77,0.69
		l0.11-0.55c0.02-0.1,0.09-0.16,0.22-0.21c0.13-0.04,0.33-0.06,0.61-0.06c0.14,0,0.25,0,0.34,0.02c0.09,0.01,0.16,0.03,0.22,0.05
		c0.05,0.02,0.09,0.05,0.11,0.08c0.02,0.03,0.02,0.07,0.01,0.12L210.2,53.04z M204.39,48.04c0,0.16-0.01,0.32-0.03,0.48
		c-0.02,0.16-0.05,0.33-0.08,0.5l-0.75,3.79c-0.01,0.04-0.03,0.08-0.07,0.12c-0.03,0.04-0.09,0.06-0.16,0.09
		c-0.07,0.02-0.16,0.04-0.28,0.05c-0.11,0.01-0.26,0.02-0.43,0.02c-0.17,0-0.3,0-0.41-0.02c-0.11-0.01-0.19-0.03-0.25-0.05
		c-0.06-0.02-0.1-0.05-0.12-0.09c-0.02-0.04-0.03-0.08-0.02-0.12l0.73-3.68c0.02-0.11,0.04-0.22,0.05-0.34
		c0.01-0.12,0.02-0.22,0.02-0.3c0-0.21-0.04-0.38-0.13-0.51c-0.09-0.13-0.23-0.2-0.44-0.2c-0.19,0-0.38,0.06-0.59,0.18
		c-0.2,0.12-0.4,0.28-0.58,0.49c-0.18,0.2-0.34,0.44-0.49,0.72c-0.14,0.27-0.24,0.56-0.3,0.87l-0.55,2.78
		c-0.01,0.04-0.03,0.08-0.07,0.12c-0.03,0.04-0.09,0.06-0.16,0.09c-0.07,0.02-0.16,0.04-0.28,0.05c-0.12,0.01-0.26,0.02-0.42,0.02
		c-0.17,0-0.31,0-0.41-0.02c-0.11-0.01-0.19-0.03-0.25-0.05c-0.06-0.02-0.1-0.05-0.12-0.09c-0.02-0.04-0.02-0.08-0.01-0.12
		l1.22-6.15c0.01-0.04,0.03-0.08,0.06-0.12c0.03-0.04,0.07-0.06,0.14-0.08c0.06-0.02,0.14-0.04,0.24-0.05
		c0.1-0.01,0.22-0.02,0.35-0.02c0.14,0,0.26,0,0.35,0.02c0.09,0.01,0.16,0.03,0.21,0.05c0.05,0.02,0.08,0.05,0.1,0.08
		c0.02,0.03,0.02,0.07,0.01,0.12l-0.2,1.01c0.1-0.16,0.22-0.32,0.38-0.49c0.16-0.17,0.34-0.32,0.55-0.45
		c0.21-0.13,0.44-0.24,0.68-0.33c0.24-0.08,0.5-0.13,0.77-0.13c0.32,0,0.59,0.05,0.81,0.14c0.22,0.09,0.39,0.22,0.53,0.38
		c0.14,0.16,0.24,0.35,0.29,0.56C204.36,47.57,204.39,47.8,204.39,48.04z M198.48,44.61c-0.03,0.17-0.08,0.31-0.13,0.43
		c-0.06,0.12-0.13,0.21-0.22,0.28c-0.09,0.07-0.2,0.12-0.34,0.15c-0.14,0.03-0.3,0.04-0.49,0.04c-0.19,0-0.35-0.01-0.47-0.04
		c-0.12-0.03-0.21-0.08-0.27-0.15c-0.06-0.07-0.1-0.16-0.11-0.28c-0.01-0.12,0-0.26,0.03-0.43c0.04-0.16,0.08-0.31,0.13-0.42
		c0.05-0.12,0.12-0.21,0.22-0.28c0.09-0.07,0.2-0.13,0.34-0.16c0.13-0.03,0.3-0.05,0.5-0.05c0.19,0,0.35,0.02,0.47,0.05
		c0.12,0.03,0.21,0.08,0.27,0.16c0.06,0.07,0.1,0.17,0.1,0.28C198.52,44.3,198.51,44.44,198.48,44.61z M194.77,47.84h-1.55
		l-0.58,2.88c-0.01,0.07-0.03,0.15-0.04,0.24c-0.01,0.09-0.02,0.17-0.02,0.23c0,0.18,0.04,0.32,0.13,0.4
		c0.09,0.08,0.22,0.13,0.41,0.13c0.11,0,0.2-0.01,0.28-0.02c0.08-0.02,0.15-0.04,0.2-0.06c0.06-0.02,0.11-0.04,0.15-0.05
		c0.04-0.02,0.08-0.02,0.12-0.02c0.04,0,0.07,0.02,0.09,0.05c0.03,0.03,0.04,0.09,0.04,0.17c0,0.09-0.01,0.18-0.03,0.3
		c-0.02,0.11-0.04,0.22-0.07,0.32c-0.03,0.1-0.06,0.2-0.1,0.28c-0.04,0.08-0.08,0.15-0.12,0.19c-0.04,0.04-0.1,0.08-0.19,0.12
		c-0.08,0.04-0.18,0.07-0.29,0.1c-0.11,0.03-0.23,0.05-0.36,0.07c-0.13,0.02-0.26,0.02-0.39,0.02c-0.27,0-0.52-0.03-0.72-0.09
		c-0.21-0.06-0.38-0.15-0.53-0.27c-0.14-0.12-0.25-0.28-0.32-0.48c-0.07-0.19-0.11-0.43-0.11-0.7c0-0.05,0-0.11,0.01-0.17
		c0-0.07,0.01-0.14,0.02-0.21c0.01-0.07,0.02-0.15,0.04-0.23c0.01-0.07,0.02-0.14,0.04-0.2l0.6-2.99h-0.28
		c-0.06,0-0.1-0.02-0.13-0.06c-0.03-0.04-0.04-0.11-0.04-0.23c0-0.08,0.01-0.18,0.02-0.3c0.02-0.13,0.04-0.25,0.08-0.37
		c0.04-0.12,0.08-0.23,0.15-0.31c0.06-0.09,0.13-0.13,0.21-0.13h0.27l0.28-1.37c0.01-0.04,0.03-0.09,0.07-0.12
		c0.03-0.04,0.09-0.07,0.16-0.09c0.07-0.03,0.16-0.05,0.27-0.06c0.11-0.01,0.25-0.02,0.42-0.02c0.16,0,0.3,0.01,0.41,0.02
		c0.11,0.01,0.2,0.03,0.26,0.06c0.06,0.03,0.1,0.06,0.12,0.09c0.02,0.04,0.02,0.08,0.01,0.12l-0.27,1.37h1.6
		C195.42,46.43,195.21,47.84,194.77,47.84z M196.13,47.01l0.03-0.13c0.05-0.18,0.13-0.44,0.5-0.44l0.8,0c0.19,0,0.32,0.04,0.38,0.12
		c0.06,0.08,0.07,0.2,0.04,0.36l-1.18,5.89c-0.01,0.04-0.03,0.08-0.07,0.12c-0.04,0.04-0.09,0.06-0.16,0.09
		c-0.07,0.02-0.16,0.04-0.27,0.05c-0.11,0.01-0.25,0.02-0.42,0.02c-0.16,0-0.3,0-0.41-0.02c-0.11-0.01-0.19-0.03-0.26-0.05
		c-0.06-0.02-0.1-0.05-0.12-0.09c-0.02-0.04-0.03-0.08-0.01-0.12l0.99-4.96L196.13,47.01z M190.69,47.08c0,0.11-0.01,0.22-0.04,0.36
		c-0.03,0.13-0.06,0.26-0.1,0.38c-0.04,0.12-0.09,0.22-0.15,0.3c-0.06,0.08-0.13,0.12-0.2,0.12c-0.07,0-0.13-0.03-0.2-0.08
		c-0.07-0.05-0.14-0.12-0.24-0.19c-0.09-0.07-0.21-0.13-0.35-0.19c-0.14-0.06-0.33-0.09-0.55-0.09c-0.24,0-0.45,0.05-0.64,0.16
		c-0.19,0.11-0.35,0.25-0.49,0.41c-0.14,0.17-0.25,0.36-0.35,0.57c-0.09,0.21-0.17,0.43-0.23,0.65c-0.06,0.22-0.1,0.43-0.13,0.63
		c-0.03,0.2-0.04,0.37-0.04,0.52c0,0.37,0.08,0.65,0.24,0.85c0.16,0.19,0.42,0.29,0.76,0.29c0.26,0,0.48-0.03,0.66-0.1
		c0.18-0.07,0.34-0.14,0.47-0.22c0.13-0.08,0.24-0.15,0.34-0.22c0.09-0.06,0.18-0.1,0.26-0.1c0.04,0,0.08,0.02,0.1,0.06
		c0.02,0.04,0.03,0.1,0.03,0.18c0,0.08-0.01,0.18-0.03,0.29c-0.02,0.12-0.04,0.23-0.07,0.35c-0.03,0.12-0.06,0.23-0.1,0.34
		c-0.04,0.1-0.09,0.19-0.15,0.24c-0.06,0.06-0.16,0.13-0.29,0.2c-0.13,0.07-0.29,0.14-0.46,0.2c-0.17,0.06-0.36,0.1-0.57,0.14
		c-0.2,0.04-0.41,0.05-0.63,0.05c-0.78,0-1.37-0.2-1.76-0.6c-0.39-0.4-0.58-0.98-0.58-1.76c0-0.28,0.03-0.59,0.08-0.92
		c0.05-0.34,0.14-0.67,0.26-1.01c0.12-0.34,0.27-0.66,0.46-0.98c0.19-0.32,0.42-0.6,0.7-0.84c0.28-0.24,0.59-0.44,0.96-0.58
		c0.36-0.15,0.78-0.22,1.25-0.22c0.18,0,0.36,0.01,0.53,0.04c0.17,0.03,0.33,0.07,0.48,0.11c0.15,0.05,0.28,0.11,0.39,0.17
		c0.11,0.07,0.19,0.12,0.25,0.18c0.05,0.05,0.09,0.1,0.11,0.14C190.68,46.97,190.69,47.02,190.69,47.08z M183.49,48.14
		c0-0.18-0.07-0.34-0.21-0.46c-0.14-0.12-0.35-0.18-0.62-0.18c-0.23,0-0.43,0.04-0.61,0.12c-0.18,0.08-0.34,0.19-0.48,0.33
		c-0.14,0.14-0.26,0.3-0.35,0.5c-0.1,0.19-0.18,0.39-0.24,0.61h0.57c0.36,0,0.67-0.02,0.92-0.07c0.25-0.05,0.45-0.11,0.6-0.2
		c0.15-0.08,0.26-0.18,0.33-0.29C183.45,48.39,183.49,48.27,183.49,48.14z M185.19,48.02c0,0.33-0.07,0.63-0.22,0.89
		c-0.15,0.27-0.38,0.49-0.69,0.68c-0.31,0.19-0.71,0.34-1.2,0.44c-0.48,0.1-1.06,0.15-1.72,0.15h-0.63
		c-0.02,0.11-0.03,0.21-0.04,0.31c-0.01,0.1-0.01,0.2-0.01,0.29c0,0.37,0.1,0.65,0.29,0.84c0.19,0.19,0.5,0.28,0.92,0.28
		c0.3,0,0.57-0.02,0.81-0.07c0.24-0.04,0.45-0.09,0.63-0.15c0.18-0.05,0.33-0.1,0.45-0.15c0.12-0.04,0.21-0.07,0.26-0.07
		c0.05,0,0.09,0.02,0.12,0.05c0.02,0.03,0.04,0.08,0.04,0.15c0,0.08-0.01,0.17-0.02,0.27c-0.01,0.1-0.03,0.2-0.06,0.3
		c-0.02,0.1-0.06,0.19-0.1,0.28c-0.04,0.09-0.08,0.15-0.13,0.2c-0.05,0.05-0.15,0.11-0.3,0.16c-0.15,0.06-0.32,0.11-0.53,0.15
		c-0.21,0.04-0.44,0.08-0.69,0.11c-0.26,0.03-0.52,0.04-0.78,0.04c-0.44,0-0.82-0.05-1.15-0.14c-0.33-0.09-0.6-0.23-0.82-0.42
		c-0.22-0.19-0.38-0.43-0.49-0.72c-0.11-0.29-0.16-0.64-0.16-1.03c0-0.31,0.03-0.64,0.09-0.99c0.06-0.35,0.15-0.7,0.28-1.04
		c0.13-0.34,0.29-0.67,0.49-0.98c0.2-0.31,0.45-0.58,0.73-0.82c0.29-0.23,0.62-0.42,0.99-0.57c0.38-0.14,0.8-0.21,1.29-0.21
		c0.41,0,0.77,0.05,1.07,0.15c0.3,0.1,0.55,0.23,0.74,0.39c0.19,0.16,0.34,0.35,0.43,0.56C185.14,47.58,185.19,47.8,185.19,48.02z
		 M180.61,43.87c0,0.03,0,0.07-0.01,0.13c-0.01,0.06-0.02,0.13-0.03,0.21c-0.01,0.08-0.03,0.16-0.04,0.24
		c-0.02,0.08-0.04,0.16-0.07,0.23c-0.02,0.07-0.05,0.13-0.08,0.17c-0.03,0.04-0.07,0.07-0.1,0.07c-0.03,0-0.06-0.01-0.11-0.02
		c-0.04-0.01-0.09-0.03-0.15-0.04c-0.05-0.02-0.12-0.03-0.19-0.04c-0.07-0.01-0.15-0.02-0.23-0.02c-0.15,0-0.27,0.02-0.38,0.06
		c-0.11,0.04-0.2,0.11-0.28,0.2c-0.08,0.09-0.14,0.2-0.2,0.34c-0.05,0.14-0.1,0.31-0.14,0.51l-0.1,0.52h1.1
		c0.07,0,0.11,0.02,0.14,0.07c0.03,0.04,0.04,0.11,0.04,0.21c0,0.04,0,0.11-0.01,0.18c-0.01,0.07-0.02,0.15-0.04,0.24
		c-0.02,0.08-0.04,0.17-0.07,0.25c-0.03,0.08-0.06,0.16-0.09,0.23c-0.03,0.07-0.07,0.12-0.11,0.17c-0.04,0.05-0.09,0.07-0.14,0.07
		h-1.12l-1.08,5.39c-0.08,0.38-0.19,0.71-0.32,1c-0.14,0.29-0.3,0.53-0.51,0.73c-0.21,0.19-0.45,0.34-0.73,0.44
		c-0.28,0.1-0.6,0.15-0.96,0.15c-0.24,0-0.44-0.02-0.6-0.06c-0.16-0.03-0.26-0.07-0.31-0.11c-0.02-0.03-0.04-0.06-0.05-0.09
		c-0.01-0.03-0.01-0.08-0.01-0.14c0-0.03,0-0.07,0.01-0.14c0.01-0.07,0.02-0.14,0.03-0.21c0.01-0.07,0.03-0.15,0.05-0.24
		c0.02-0.08,0.04-0.16,0.07-0.23c0.03-0.07,0.05-0.12,0.09-0.17c0.03-0.04,0.07-0.07,0.11-0.07c0.03,0,0.06,0,0.08,0.01
		c0.03,0,0.06,0.01,0.09,0.02c0.03,0.01,0.07,0.01,0.11,0.02c0.04,0,0.1,0.01,0.17,0.01c0.15,0,0.27-0.02,0.38-0.07
		c0.11-0.04,0.2-0.11,0.28-0.2c0.08-0.09,0.14-0.21,0.2-0.35c0.05-0.14,0.1-0.32,0.14-0.52c0.51-2.51,1.04-5.15,1.45-7.25
		c0.07-0.39,0.18-0.72,0.32-1.02c0.14-0.29,0.32-0.54,0.53-0.74c0.21-0.2,0.46-0.34,0.74-0.44c0.28-0.1,0.6-0.15,0.96-0.15
		c0.12,0,0.24,0,0.36,0.02c0.12,0.01,0.22,0.03,0.32,0.05c0.1,0.02,0.18,0.04,0.25,0.07c0.07,0.03,0.12,0.05,0.15,0.08
		c0.03,0.02,0.05,0.06,0.06,0.1C180.61,43.76,180.61,43.81,180.61,43.87z M175.96,46.57c0,0.03,0,0.09-0.01,0.17
		c-0.01,0.08-0.02,0.18-0.04,0.29c-0.02,0.11-0.04,0.22-0.07,0.34c-0.03,0.12-0.06,0.22-0.09,0.33c-0.04,0.1-0.07,0.18-0.12,0.25
		c-0.04,0.06-0.09,0.09-0.14,0.09c-0.04,0-0.08-0.01-0.12-0.02c-0.04-0.02-0.09-0.03-0.14-0.05c-0.05-0.02-0.11-0.03-0.16-0.05
		c-0.06-0.02-0.13-0.02-0.21-0.02c-0.16,0-0.32,0.06-0.5,0.18c-0.18,0.12-0.34,0.28-0.5,0.47c-0.16,0.2-0.3,0.42-0.43,0.68
		c-0.13,0.26-0.22,0.53-0.27,0.82l-0.55,2.76c-0.01,0.04-0.03,0.08-0.07,0.12c-0.03,0.04-0.09,0.06-0.16,0.09
		c-0.07,0.02-0.16,0.04-0.28,0.05c-0.11,0.01-0.26,0.02-0.42,0.02c-0.17,0-0.3,0-0.41-0.02c-0.11-0.01-0.19-0.03-0.25-0.05
		c-0.06-0.02-0.1-0.05-0.12-0.09c-0.02-0.04-0.02-0.08-0.01-0.12l1.23-6.15c0.01-0.04,0.03-0.08,0.06-0.12
		c0.03-0.04,0.08-0.06,0.14-0.08c0.06-0.02,0.14-0.04,0.24-0.05c0.1-0.01,0.22-0.02,0.35-0.02c0.14,0,0.26,0,0.35,0.02
		c0.09,0.01,0.16,0.03,0.21,0.05c0.05,0.02,0.08,0.05,0.1,0.08c0.02,0.03,0.02,0.07,0.01,0.12l-0.19,0.98
		c0.11-0.2,0.24-0.38,0.38-0.54c0.14-0.17,0.3-0.31,0.46-0.43c0.16-0.12,0.33-0.22,0.5-0.28c0.17-0.07,0.34-0.1,0.51-0.1
		c0.07,0,0.14,0,0.21,0.01c0.07,0.01,0.14,0.02,0.2,0.03c0.06,0.01,0.12,0.03,0.17,0.05c0.05,0.02,0.09,0.04,0.11,0.07
		C175.95,46.47,175.96,46.51,175.96,46.57z M169.29,48.14c0-0.18-0.07-0.34-0.21-0.46c-0.14-0.12-0.35-0.18-0.62-0.18
		c-0.23,0-0.43,0.04-0.62,0.12c-0.18,0.08-0.34,0.19-0.48,0.33c-0.14,0.14-0.26,0.3-0.35,0.5c-0.1,0.19-0.18,0.39-0.23,0.61h0.57
		c0.36,0,0.67-0.02,0.92-0.07c0.25-0.05,0.45-0.11,0.6-0.2c0.15-0.08,0.26-0.18,0.33-0.29C169.26,48.39,169.29,48.27,169.29,48.14z
		 M171,48.02c0,0.33-0.08,0.63-0.22,0.89c-0.15,0.27-0.38,0.49-0.69,0.68c-0.31,0.19-0.71,0.34-1.19,0.44
		c-0.48,0.1-1.06,0.15-1.72,0.15h-0.63c-0.02,0.11-0.03,0.21-0.04,0.31c-0.01,0.1-0.01,0.2-0.01,0.29c0,0.37,0.1,0.65,0.29,0.84
		c0.19,0.19,0.5,0.28,0.92,0.28c0.3,0,0.57-0.02,0.81-0.07c0.24-0.04,0.45-0.09,0.63-0.15c0.18-0.05,0.33-0.1,0.45-0.15
		c0.12-0.04,0.21-0.07,0.26-0.07c0.05,0,0.09,0.02,0.12,0.05c0.02,0.03,0.03,0.08,0.03,0.15c0,0.08-0.01,0.17-0.02,0.27
		c-0.01,0.1-0.03,0.2-0.06,0.3c-0.02,0.1-0.06,0.19-0.1,0.28c-0.04,0.09-0.08,0.15-0.13,0.2c-0.05,0.05-0.15,0.11-0.3,0.16
		c-0.15,0.06-0.32,0.11-0.53,0.15c-0.21,0.04-0.44,0.08-0.69,0.11c-0.26,0.03-0.52,0.04-0.78,0.04c-0.44,0-0.82-0.05-1.15-0.14
		c-0.33-0.09-0.6-0.23-0.82-0.42c-0.22-0.19-0.38-0.43-0.49-0.72c-0.11-0.29-0.16-0.64-0.16-1.03c0-0.31,0.03-0.64,0.09-0.99
		c0.06-0.35,0.15-0.7,0.28-1.04c0.13-0.34,0.29-0.67,0.5-0.98c0.2-0.31,0.45-0.58,0.73-0.82c0.29-0.23,0.62-0.42,0.99-0.57
		c0.38-0.14,0.8-0.21,1.29-0.21c0.41,0,0.77,0.05,1.07,0.15c0.3,0.1,0.55,0.23,0.74,0.39c0.19,0.16,0.34,0.35,0.43,0.56
		C170.95,47.58,171,47.8,171,48.02z M163.53,46.52c0-0.22-0.05-0.41-0.16-0.57c-0.11-0.16-0.27-0.27-0.49-0.34
		c-0.1-0.03-0.2-0.05-0.32-0.06c-0.12-0.01-0.25-0.02-0.4-0.02h-0.8l-0.61,3.03h0.83c0.26,0,0.49-0.03,0.67-0.09
		c0.19-0.06,0.35-0.14,0.49-0.24c0.14-0.1,0.26-0.22,0.36-0.36c0.1-0.14,0.18-0.28,0.24-0.43c0.06-0.15,0.11-0.3,0.13-0.46
		C163.51,46.81,163.53,46.67,163.53,46.52z M250.73,51.67c0,0.07-0.01,0.16-0.02,0.27c-0.01,0.11-0.03,0.22-0.07,0.34
		c-0.03,0.12-0.07,0.23-0.12,0.34c-0.05,0.11-0.11,0.2-0.18,0.27c-0.07,0.07-0.18,0.13-0.32,0.17c-0.14,0.04-0.32,0.07-0.55,0.07
		c-0.17,0-0.31-0.01-0.42-0.04c-0.11-0.03-0.2-0.07-0.27-0.12c-0.07-0.06-0.12-0.13-0.14-0.21c-0.03-0.08-0.04-0.18-0.04-0.3
		c0-0.08,0.01-0.17,0.02-0.28c0.02-0.11,0.04-0.22,0.07-0.34c0.03-0.12,0.07-0.23,0.11-0.33c0.05-0.11,0.11-0.19,0.18-0.27
		c0.07-0.07,0.18-0.13,0.31-0.17c0.13-0.05,0.32-0.07,0.56-0.07c0.18,0,0.33,0.02,0.44,0.05c0.12,0.03,0.2,0.07,0.27,0.13
		c0.07,0.06,0.11,0.13,0.13,0.21C250.72,51.47,250.73,51.56,250.73,51.67z M246.93,48.14c0-0.18-0.07-0.34-0.21-0.46
		c-0.14-0.12-0.35-0.18-0.62-0.18c-0.23,0-0.43,0.04-0.62,0.12c-0.18,0.08-0.34,0.19-0.48,0.33c-0.14,0.14-0.26,0.3-0.35,0.5
		c-0.1,0.19-0.18,0.39-0.23,0.61h0.57c0.36,0,0.67-0.02,0.91-0.07c0.25-0.05,0.45-0.11,0.6-0.2c0.15-0.08,0.26-0.18,0.33-0.29
		C246.9,48.39,246.93,48.27,246.93,48.14z M248.64,48.02c0,0.33-0.07,0.63-0.22,0.89c-0.15,0.27-0.38,0.49-0.69,0.68
		c-0.31,0.19-0.71,0.34-1.19,0.44c-0.48,0.1-1.06,0.15-1.72,0.15h-0.63c-0.02,0.11-0.03,0.21-0.04,0.31
		c-0.01,0.1-0.01,0.2-0.01,0.29c0,0.37,0.1,0.65,0.29,0.84c0.19,0.19,0.5,0.28,0.92,0.28c0.3,0,0.57-0.02,0.81-0.07
		c0.24-0.04,0.45-0.09,0.63-0.15c0.18-0.05,0.33-0.1,0.45-0.15c0.12-0.04,0.21-0.07,0.26-0.07c0.05,0,0.09,0.02,0.12,0.05
		c0.02,0.03,0.04,0.08,0.04,0.15c0,0.08-0.01,0.17-0.02,0.27c-0.01,0.1-0.03,0.2-0.06,0.3c-0.02,0.1-0.06,0.19-0.1,0.28
		c-0.04,0.09-0.08,0.15-0.13,0.2c-0.05,0.05-0.15,0.11-0.3,0.16c-0.15,0.06-0.32,0.11-0.53,0.15c-0.21,0.04-0.44,0.08-0.69,0.11
		c-0.26,0.03-0.52,0.04-0.78,0.04c-0.44,0-0.82-0.05-1.15-0.14c-0.33-0.09-0.6-0.23-0.82-0.42c-0.22-0.19-0.38-0.43-0.49-0.72
		c-0.11-0.29-0.16-0.64-0.16-1.03c0-0.31,0.03-0.64,0.09-0.99c0.06-0.35,0.15-0.7,0.28-1.04c0.13-0.34,0.29-0.67,0.5-0.98
		c0.2-0.31,0.45-0.58,0.73-0.82c0.29-0.23,0.62-0.42,0.99-0.57c0.38-0.14,0.8-0.21,1.29-0.21c0.42,0,0.77,0.05,1.07,0.15
		c0.3,0.1,0.55,0.23,0.74,0.39c0.19,0.16,0.34,0.35,0.43,0.56C248.59,47.58,248.64,47.8,248.64,48.02z M243.04,46.57
		c0,0.03-0.01,0.09-0.01,0.17c-0.01,0.08-0.02,0.18-0.04,0.29c-0.02,0.11-0.04,0.22-0.07,0.34c-0.03,0.12-0.06,0.22-0.09,0.33
		c-0.04,0.1-0.07,0.18-0.12,0.25c-0.04,0.06-0.09,0.09-0.14,0.09c-0.04,0-0.08-0.01-0.12-0.02c-0.04-0.02-0.09-0.03-0.14-0.05
		c-0.05-0.02-0.11-0.03-0.16-0.05c-0.06-0.02-0.13-0.02-0.21-0.02c-0.16,0-0.32,0.06-0.5,0.18c-0.18,0.12-0.34,0.28-0.5,0.47
		c-0.16,0.2-0.3,0.42-0.43,0.68c-0.13,0.26-0.22,0.53-0.27,0.82l-0.55,2.76c-0.01,0.04-0.03,0.08-0.07,0.12
		c-0.03,0.04-0.09,0.06-0.16,0.09c-0.07,0.02-0.16,0.04-0.28,0.05c-0.12,0.01-0.26,0.02-0.42,0.02c-0.17,0-0.3,0-0.41-0.02
		c-0.11-0.01-0.19-0.03-0.25-0.05c-0.06-0.02-0.1-0.05-0.12-0.09c-0.02-0.04-0.02-0.08-0.01-0.12l1.22-6.15
		c0.01-0.04,0.03-0.08,0.06-0.12c0.03-0.04,0.08-0.06,0.14-0.08c0.06-0.02,0.14-0.04,0.24-0.05c0.1-0.01,0.22-0.02,0.35-0.02
		c0.14,0,0.26,0,0.35,0.02c0.09,0.01,0.16,0.03,0.21,0.05c0.05,0.02,0.08,0.05,0.1,0.08c0.02,0.03,0.02,0.07,0.01,0.12l-0.19,0.98
		c0.11-0.2,0.24-0.38,0.38-0.54c0.14-0.17,0.3-0.31,0.46-0.43c0.16-0.12,0.33-0.22,0.5-0.28c0.17-0.07,0.34-0.1,0.51-0.1
		c0.07,0,0.14,0,0.21,0.01c0.07,0.01,0.14,0.02,0.2,0.03c0.06,0.01,0.12,0.03,0.17,0.05c0.05,0.02,0.09,0.04,0.11,0.07
		C243.03,46.47,243.04,46.51,243.04,46.57z M236.87,52.81c-0.01,0.05-0.03,0.08-0.06,0.12c-0.03,0.03-0.08,0.06-0.14,0.08
		c-0.06,0.02-0.14,0.04-0.24,0.05c-0.1,0.01-0.22,0.02-0.36,0.02c-0.14,0-0.26,0-0.35-0.02c-0.09-0.01-0.16-0.03-0.21-0.05
		c-0.05-0.02-0.08-0.05-0.1-0.08c-0.02-0.04-0.02-0.07,0-0.12l0.19-1c-0.09,0.16-0.22,0.32-0.38,0.49
		c-0.16,0.16-0.34,0.31-0.55,0.45c-0.21,0.13-0.43,0.24-0.68,0.32c-0.24,0.08-0.49,0.12-0.75,0.12c-0.32,0-0.59-0.04-0.82-0.13
		c-0.22-0.09-0.4-0.21-0.54-0.36c-0.14-0.15-0.23-0.34-0.3-0.55c-0.06-0.21-0.09-0.45-0.09-0.7c0-0.15,0.01-0.31,0.03-0.48
		c0.02-0.16,0.05-0.33,0.08-0.5l0.76-3.81c0.01-0.04,0.03-0.08,0.07-0.12c0.04-0.04,0.09-0.06,0.16-0.08
		c0.07-0.02,0.16-0.04,0.28-0.05c0.12-0.01,0.26-0.02,0.42-0.02c0.17,0,0.31,0,0.42,0.02c0.11,0.01,0.19,0.03,0.25,0.05
		c0.06,0.02,0.1,0.05,0.12,0.08c0.02,0.03,0.03,0.07,0.02,0.12l-0.73,3.69c-0.02,0.1-0.04,0.21-0.05,0.31
		c-0.01,0.11-0.02,0.22-0.02,0.32c0,0.11,0.01,0.21,0.03,0.3c0.02,0.09,0.05,0.17,0.1,0.23c0.04,0.06,0.11,0.11,0.18,0.14
		c0.07,0.03,0.16,0.05,0.26,0.05c0.19,0,0.39-0.06,0.59-0.18c0.2-0.12,0.4-0.29,0.58-0.5c0.18-0.21,0.35-0.46,0.49-0.76
		c0.14-0.29,0.25-0.61,0.33-0.95l0.52-2.66c0-0.04,0.03-0.08,0.06-0.12c0.04-0.04,0.09-0.06,0.16-0.08
		c0.07-0.02,0.16-0.04,0.28-0.05c0.11-0.01,0.25-0.02,0.42-0.02c0.17,0,0.31,0,0.42,0.02c0.11,0.01,0.19,0.03,0.25,0.05
		c0.06,0.02,0.1,0.05,0.12,0.08c0.02,0.03,0.02,0.07,0.01,0.12L236.87,52.81z M231.78,46.73c0,0.05,0,0.11-0.01,0.18
		c-0.01,0.07-0.02,0.15-0.04,0.23c-0.02,0.08-0.04,0.17-0.07,0.25c-0.03,0.08-0.06,0.16-0.09,0.22c-0.03,0.07-0.07,0.12-0.12,0.17
		c-0.04,0.05-0.09,0.07-0.14,0.07h-1.34l-0.58,2.88c-0.01,0.07-0.03,0.15-0.04,0.24c-0.01,0.09-0.02,0.17-0.02,0.23
		c0,0.18,0.04,0.32,0.13,0.4c0.09,0.08,0.22,0.13,0.41,0.13c0.11,0,0.21-0.01,0.28-0.02c0.08-0.02,0.15-0.04,0.2-0.06
		c0.06-0.02,0.11-0.04,0.15-0.05c0.04-0.02,0.08-0.02,0.12-0.02s0.07,0.02,0.09,0.05c0.03,0.03,0.04,0.09,0.04,0.17
		c0,0.09-0.01,0.18-0.03,0.3c-0.02,0.11-0.04,0.22-0.07,0.32c-0.03,0.1-0.06,0.2-0.1,0.28c-0.04,0.08-0.08,0.15-0.12,0.19
		c-0.04,0.04-0.11,0.08-0.19,0.12c-0.08,0.04-0.18,0.07-0.29,0.1c-0.11,0.03-0.23,0.05-0.36,0.07c-0.13,0.02-0.26,0.02-0.39,0.02
		c-0.27,0-0.52-0.03-0.73-0.09c-0.21-0.06-0.38-0.15-0.52-0.27c-0.14-0.12-0.25-0.28-0.32-0.48c-0.07-0.19-0.11-0.43-0.11-0.7
		c0-0.05,0-0.11,0.01-0.17c0-0.07,0.01-0.14,0.03-0.21c0.01-0.07,0.02-0.15,0.03-0.23c0.01-0.07,0.03-0.14,0.04-0.2l0.6-2.99h-0.75
		c-0.06,0-0.11-0.02-0.13-0.06c-0.03-0.04-0.04-0.11-0.04-0.23c0-0.08,0.01-0.18,0.02-0.3c0.02-0.13,0.04-0.25,0.08-0.37
		c0.04-0.12,0.08-0.23,0.15-0.31c0.06-0.09,0.13-0.13,0.21-0.13h0.74l0.28-1.37c0.01-0.04,0.03-0.09,0.07-0.12
		c0.03-0.04,0.08-0.07,0.16-0.09c0.07-0.03,0.16-0.05,0.27-0.06c0.11-0.01,0.25-0.02,0.42-0.02c0.17,0,0.31,0.01,0.42,0.02
		c0.11,0.01,0.2,0.03,0.26,0.06c0.06,0.03,0.1,0.06,0.12,0.09c0.02,0.04,0.03,0.08,0.02,0.12l-0.28,1.37h1.32
		c0.08,0,0.13,0.03,0.16,0.07C231.76,46.56,231.78,46.63,231.78,46.73z M225.87,52.81c-0.01,0.05-0.03,0.08-0.06,0.12
		c-0.03,0.03-0.08,0.06-0.14,0.08c-0.06,0.02-0.14,0.04-0.24,0.05c-0.1,0.01-0.22,0.02-0.36,0.02c-0.14,0-0.26,0-0.35-0.02
		c-0.09-0.01-0.16-0.03-0.21-0.05c-0.05-0.02-0.08-0.05-0.1-0.08c-0.02-0.04-0.02-0.07,0-0.12l0.19-1
		c-0.09,0.16-0.22,0.32-0.38,0.49c-0.16,0.16-0.35,0.31-0.55,0.45c-0.21,0.13-0.43,0.24-0.68,0.32c-0.24,0.08-0.49,0.12-0.75,0.12
		c-0.32,0-0.59-0.04-0.82-0.13c-0.22-0.09-0.4-0.21-0.54-0.36c-0.14-0.15-0.23-0.34-0.3-0.55c-0.06-0.21-0.09-0.45-0.09-0.7
		c0-0.15,0.01-0.31,0.03-0.48c0.02-0.16,0.05-0.33,0.08-0.5l0.76-3.81c0.01-0.04,0.03-0.08,0.07-0.12c0.04-0.04,0.09-0.06,0.16-0.08
		c0.07-0.02,0.16-0.04,0.28-0.05c0.11-0.01,0.26-0.02,0.42-0.02c0.17,0,0.31,0,0.42,0.02c0.11,0.01,0.19,0.03,0.25,0.05
		c0.06,0.02,0.1,0.05,0.12,0.08c0.02,0.03,0.03,0.07,0.02,0.12l-0.73,3.69c-0.02,0.1-0.04,0.21-0.05,0.31
		c-0.01,0.11-0.02,0.22-0.02,0.32c0,0.11,0.01,0.21,0.03,0.3c0.02,0.09,0.05,0.17,0.1,0.23c0.04,0.06,0.11,0.11,0.18,0.14
		c0.07,0.03,0.16,0.05,0.26,0.05c0.19,0,0.39-0.06,0.59-0.18c0.2-0.12,0.4-0.29,0.58-0.5c0.18-0.21,0.35-0.46,0.49-0.76
		c0.14-0.29,0.25-0.61,0.33-0.95l0.52-2.66c0-0.04,0.03-0.08,0.06-0.12c0.04-0.04,0.09-0.06,0.16-0.08
		c0.07-0.02,0.16-0.04,0.28-0.05c0.12-0.01,0.25-0.02,0.42-0.02c0.17,0,0.31,0,0.42,0.02c0.11,0.01,0.19,0.03,0.25,0.05
		c0.06,0.02,0.1,0.05,0.12,0.08c0.02,0.03,0.02,0.07,0.01,0.12L225.87,52.81z M165.43,46.32c0,0.26-0.03,0.52-0.09,0.8
		c-0.06,0.28-0.15,0.55-0.28,0.82c-0.13,0.27-0.3,0.52-0.5,0.76c-0.2,0.24-0.45,0.45-0.75,0.64c-0.3,0.19-0.64,0.33-1.03,0.44
		c-0.39,0.11-0.85,0.16-1.38,0.16h-0.93l-0.57,2.84c-0.01,0.04-0.03,0.09-0.07,0.12c-0.04,0.04-0.09,0.07-0.17,0.09
		c-0.08,0.02-0.18,0.04-0.3,0.05c-0.12,0.01-0.27,0.02-0.44,0.02c-0.17,0-0.31,0-0.42-0.02c-0.11-0.01-0.2-0.03-0.26-0.05
		c-0.06-0.02-0.11-0.05-0.13-0.09c-0.02-0.04-0.03-0.08-0.01-0.13l1.6-8.01c0.04-0.22,0.13-0.38,0.27-0.49
		c0.14-0.11,0.31-0.16,0.51-0.16h1.95c0.24,0,0.45,0.01,0.64,0.02c0.19,0.02,0.37,0.04,0.56,0.08c0.28,0.05,0.53,0.14,0.75,0.26
		c0.22,0.11,0.41,0.26,0.57,0.43c0.16,0.17,0.27,0.37,0.36,0.6C165.39,45.76,165.43,46.02,165.43,46.32z"/>
</g>
<path class="st1" d="M38.38,43.69v3.42l-4.57-1.12v-2.3h-1.23h-1.01c-5.1,0-9.26-4.16-9.26-9.26v-9.13c1.01,1.9,2.63,3.42,4.57,4.4
	v4.62c0,2.65,2.16,4.8,4.8,4.8h0.9h7.68c2.51,0,5.03-1.8,5.03-4.46V34.2c0-2.37-2-4.05-4.21-4.4v0c-0.26-0.04-0.53-0.06-0.8-0.06
	h-8.36c-5.06,0-9.61-3.84-9.61-9.04v-0.82c0-5.2,4.55-9.08,9.61-9.08h4.35h4.01c5.29,0,9.61,4.31,9.61,9.61v9.21
	c-1.01-1.9-2.63-3.42-4.57-4.4v-4.81c0-2.77-2.26-5.03-5.03-5.03H38.4v8.66h-4.57v-8.66h-1.89c-2.51,0-5.03,1.85-5.03,4.51v0.82
	c0,2.66,2.52,4.46,5.03,4.46h8.36c5.06,0,9.61,3.84,9.61,9.04v0.45c0,5.2-4.55,9.03-9.61,9.03h-0.03H38.38z M38.4,30.89h-4.57v7.09
	h4.57V30.89z"/>
</svg>
